<?xml version="1.0" encoding="utf-8"?>
<!-- Generator: Adobe Illustrator 21.0.0, SVG Export Plug-In . SVG Version: 6.00 Build 0)  -->
<svg version="1.1" id="Layer_1" xmlns="http://www.w3.org/2000/svg" xmlns:xlink="http://www.w3.org/1999/xlink" x="0px" y="0px"
	 viewBox="0 0 232.7 116.7" style="enable-background:new 0 0 232.7 116.7;" xml:space="preserve">
<style type="text/css">
	.st0{fill:#ED1C24;}
	.st1{fill:#FFFFFF;}
</style>
<rect x="44.3" y="26.1" class="st0" width="144" height="49"/>
<path class="st1" d="M116.4,66.4h-8.9L100,53.8h-3v12.6h-7.8V35.1h13.6c7.4,0,11.4,3.3,11.4,9c0,5.9-4.1,8.3-6.3,8.9L116.4,66.4z
	 M101.9,41h-5v6.8h5c2.5,0,4.3-1,4.3-3.5C106.2,42,104.4,41,101.9,41"/>
<path class="st1" d="M146.7,61.7c0,0-4,5.5-13.4,5.5c-9.4,0-15-6.4-15-16.4c0-10.1,6.1-16.2,15.2-16.2c9.1,0,12.1,5.8,12.5,6.8
	l-6.6,3.1c-0.4-1-2-3.6-5.9-3.6c-3.8,0-7.2,2.6-7.2,10c0,7.4,3.2,10,7.1,10c3.9,0,5.5-1.7,5.5-1.7v-5.2h-6.3v-6h14V61.7z"/>
<path class="st1" d="M164.8,66.4h-12.2V35.1h12.2c9.8,0,15.6,5.8,15.6,15.6C180.4,60.6,174.6,66.4,164.8,66.4 M163.5,41.4h-3.1v18.7
	h3.1c6.2,0,8.8-3.2,8.8-9.4C172.3,44.6,169.7,41.4,163.5,41.4"/>
<path class="st1" d="M55.3,92.5h-2.2L50.4,88H49v4.5H47V82.4h4.1c1.1,0,2,0.2,2.6,0.7c0.6,0.5,0.9,1.2,0.9,2.1
	c0,0.5-0.1,0.9-0.2,1.2c-0.2,0.3-0.3,0.6-0.6,0.8c-0.2,0.2-0.5,0.4-0.7,0.5c-0.3,0.1-0.5,0.2-0.7,0.2L55.3,92.5z M52.7,85.2
	c0-0.2,0-0.5-0.1-0.6c-0.1-0.2-0.2-0.3-0.3-0.4C52,84.1,51.9,84,51.7,84c-0.2,0-0.4-0.1-0.7-0.1h-2v2.5h2c0.2,0,0.5,0,0.7-0.1
	c0.2,0,0.4-0.1,0.5-0.2c0.1-0.1,0.3-0.2,0.3-0.4C52.6,85.7,52.7,85.5,52.7,85.2z"/>
<path class="st1" d="M65.1,91c-0.2,0.3-0.6,0.6-1,0.9c-0.3,0.2-0.8,0.4-1.3,0.6c-0.5,0.2-1.2,0.3-1.9,0.3c-0.7,0-1.4-0.1-2-0.4
	c-0.6-0.3-1.1-0.6-1.5-1.1c-0.4-0.5-0.7-1-0.9-1.7c-0.2-0.7-0.3-1.4-0.3-2.2c0-0.8,0.1-1.5,0.3-2.2c0.2-0.6,0.5-1.2,1-1.7
	c0.4-0.5,0.9-0.8,1.5-1.1c0.6-0.3,1.2-0.4,1.9-0.4c0.7,0,1.3,0.1,1.8,0.3c0.5,0.2,0.9,0.4,1.2,0.7c0.3,0.3,0.5,0.5,0.6,0.7
	c0.1,0.2,0.2,0.4,0.2,0.4l-1.6,0.9c0-0.1-0.1-0.2-0.2-0.4c-0.1-0.2-0.2-0.3-0.4-0.5c-0.2-0.2-0.4-0.3-0.7-0.4
	c-0.3-0.1-0.6-0.2-1-0.2S60.3,83.8,60,84c-0.3,0.1-0.6,0.4-0.9,0.7c-0.2,0.3-0.4,0.7-0.6,1.2c-0.1,0.5-0.2,1-0.2,1.7
	s0.1,1.2,0.2,1.7c0.1,0.5,0.3,0.9,0.6,1.2c0.2,0.3,0.5,0.5,0.9,0.7c0.3,0.1,0.7,0.2,1.1,0.2c0.4,0,0.7,0,1-0.1s0.5-0.2,0.7-0.3
	c0.2-0.1,0.4-0.2,0.5-0.4v-2.1h-2.3v-1.6h4.2V91z"/>
<path class="st1" d="M76.1,87.5c0,0.8-0.1,1.5-0.3,2.1c-0.2,0.6-0.5,1.2-1,1.6c-0.4,0.4-0.9,0.8-1.6,1c-0.6,0.2-1.3,0.4-2.1,0.4
	h-3.6V82.4h3.6c0.8,0,1.5,0.1,2.1,0.4c0.6,0.2,1.1,0.6,1.6,1c0.4,0.4,0.7,1,1,1.6C76,86,76.1,86.7,76.1,87.5z M74.1,87.5
	c0-2.3-1.1-3.5-3.3-3.5h-1.4v7h1.4C73,91,74.1,89.8,74.1,87.5z"/>
<path class="st1" d="M82.9,92.5V82.4h3.7c0.5,0,0.9,0.1,1.4,0.2c0.4,0.1,0.8,0.3,1.1,0.5c0.3,0.2,0.5,0.5,0.7,0.9
	c0.2,0.4,0.3,0.8,0.3,1.3c0,0.5-0.1,0.9-0.3,1.3c-0.2,0.4-0.4,0.7-0.7,0.9c-0.3,0.2-0.7,0.4-1.1,0.5c-0.4,0.1-0.9,0.2-1.4,0.2h-2.4
	v4.4H82.9z M86.4,87c0.7,0,1.2-0.1,1.6-0.4c0.4-0.3,0.6-0.7,0.6-1.4c0-0.7-0.2-1.1-0.6-1.4c-0.4-0.3-0.9-0.4-1.6-0.4h-2.3V87H86.4z"
	/>
<path class="st1" d="M98.4,92.5l-2.9-4.7h-2.1v4.7h-1.3V82.4h3.8c1,0,1.9,0.2,2.5,0.7c0.6,0.5,0.9,1.1,0.9,2c0,0.4-0.1,0.8-0.2,1.1
	c-0.1,0.3-0.3,0.6-0.6,0.8c-0.2,0.2-0.5,0.4-0.8,0.5c-0.3,0.1-0.6,0.2-0.8,0.2l3,4.8H98.4z M95.9,86.7c0.3,0,0.6,0,0.8-0.1
	c0.3-0.1,0.5-0.1,0.7-0.3c0.2-0.1,0.3-0.3,0.4-0.5c0.1-0.2,0.2-0.5,0.2-0.8c0-0.3-0.1-0.6-0.2-0.8c-0.1-0.2-0.2-0.4-0.4-0.5
	c-0.2-0.1-0.4-0.2-0.7-0.3c-0.3-0.1-0.5-0.1-0.8-0.1h-2.5v3.3H95.9z"/>
<path class="st1" d="M105.8,92.8c-0.7,0-1.4-0.1-1.9-0.4c-0.6-0.3-1-0.7-1.4-1.1c-0.4-0.5-0.7-1-0.9-1.7c-0.2-0.6-0.3-1.3-0.3-2.1
	c0-0.7,0.1-1.4,0.3-2.1c0.2-0.6,0.5-1.2,0.9-1.7c0.4-0.5,0.9-0.9,1.4-1.1c0.6-0.3,1.2-0.4,1.9-0.4s1.4,0.1,1.9,0.4
	c0.6,0.3,1,0.7,1.4,1.1c0.4,0.5,0.7,1,0.9,1.7c0.2,0.6,0.3,1.3,0.3,2.1c0,0.7-0.1,1.4-0.3,2.1c-0.2,0.6-0.5,1.2-0.9,1.7
	c-0.4,0.5-0.9,0.9-1.4,1.1C107.1,92.6,106.5,92.8,105.8,92.8z M105.8,91.7c0.5,0,1-0.1,1.4-0.3c0.4-0.2,0.7-0.5,1-0.9
	c0.3-0.4,0.5-0.8,0.6-1.3c0.1-0.5,0.2-1,0.2-1.6c0-0.6-0.1-1.1-0.2-1.6c-0.1-0.5-0.3-1-0.6-1.3c-0.3-0.4-0.6-0.7-1-0.9
	c-0.4-0.2-0.9-0.3-1.4-0.3c-0.6,0-1,0.1-1.4,0.3c-0.4,0.2-0.7,0.5-1,0.9c-0.3,0.4-0.5,0.8-0.6,1.3c-0.1,0.5-0.2,1-0.2,1.6
	c0,0.6,0.1,1.1,0.2,1.6c0.1,0.5,0.3,1,0.6,1.3c0.3,0.4,0.6,0.7,1,0.9C104.7,91.5,105.2,91.7,105.8,91.7z"/>
<path class="st1" d="M112.5,92.5V82.4h6l-0.2,1.1h-4.5v3.2h4v1.1h-4v4.8H112.5z"/>
<path class="st1" d="M120.3,92.5V82.4h6.2l-0.2,1.1h-4.7v2.9h4.2v1.1h-4.2v3.9h4.9l0.2,1.1H120.3z"/>
<path class="st1" d="M130.8,87.6c-0.3-0.1-0.6-0.2-0.9-0.4c-0.3-0.2-0.6-0.3-0.8-0.6c-0.3-0.2-0.5-0.5-0.6-0.8
	c-0.2-0.3-0.2-0.7-0.2-1.1c0-0.4,0.1-0.8,0.2-1.1c0.2-0.3,0.4-0.6,0.7-0.8c0.3-0.2,0.6-0.4,1-0.5c0.4-0.1,0.8-0.2,1.3-0.2
	c0.5,0,0.9,0.1,1.3,0.2c0.4,0.1,0.7,0.3,1,0.5c0.3,0.2,0.5,0.4,0.7,0.7c0.2,0.2,0.3,0.5,0.4,0.7l-0.9,0.7c-0.1-0.2-0.2-0.4-0.4-0.6
	c-0.2-0.2-0.3-0.4-0.6-0.5c-0.2-0.2-0.4-0.3-0.7-0.4c-0.3-0.1-0.5-0.1-0.8-0.1c-0.6,0-1,0.1-1.4,0.4c-0.3,0.3-0.5,0.6-0.5,1.1
	c0,0.2,0,0.4,0.1,0.6c0.1,0.2,0.2,0.3,0.4,0.4c0.2,0.1,0.3,0.2,0.5,0.3c0.2,0.1,0.4,0.2,0.6,0.2l1.2,0.4c0.3,0.1,0.6,0.2,0.9,0.4
	c0.3,0.2,0.6,0.3,0.9,0.6c0.3,0.2,0.5,0.5,0.7,0.9c0.2,0.3,0.3,0.7,0.3,1.2s-0.1,0.9-0.3,1.2c-0.2,0.4-0.4,0.7-0.7,0.9
	c-0.3,0.3-0.7,0.5-1.1,0.6c-0.4,0.1-0.9,0.2-1.4,0.2c-0.5,0-0.9-0.1-1.4-0.2c-0.4-0.1-0.8-0.3-1.1-0.6c-0.3-0.2-0.6-0.5-0.9-0.9
	c-0.2-0.3-0.4-0.7-0.6-1.1l1.1-0.6c0.3,0.7,0.7,1.3,1.2,1.7c0.5,0.4,1.1,0.6,1.7,0.6c0.6,0,1.1-0.2,1.5-0.5c0.4-0.3,0.6-0.8,0.6-1.3
	c0-0.5-0.2-0.9-0.5-1.2c-0.3-0.3-0.8-0.5-1.3-0.7L130.8,87.6z"/>
<path class="st1" d="M139.5,87.6c-0.3-0.1-0.6-0.2-0.9-0.4c-0.3-0.2-0.6-0.3-0.8-0.6c-0.3-0.2-0.5-0.5-0.6-0.8
	c-0.2-0.3-0.2-0.7-0.2-1.1c0-0.4,0.1-0.8,0.2-1.1c0.2-0.3,0.4-0.6,0.7-0.8c0.3-0.2,0.6-0.4,1-0.5c0.4-0.1,0.8-0.2,1.3-0.2
	c0.5,0,0.9,0.1,1.3,0.2c0.4,0.1,0.7,0.3,1,0.5c0.3,0.2,0.5,0.4,0.7,0.7c0.2,0.2,0.3,0.5,0.4,0.7l-0.9,0.7c-0.1-0.2-0.2-0.4-0.4-0.6
	c-0.2-0.2-0.3-0.4-0.6-0.5c-0.2-0.2-0.4-0.3-0.7-0.4c-0.3-0.1-0.5-0.1-0.8-0.1c-0.6,0-1,0.1-1.4,0.4c-0.3,0.3-0.5,0.6-0.5,1.1
	c0,0.2,0,0.4,0.1,0.6c0.1,0.2,0.2,0.3,0.4,0.4c0.2,0.1,0.3,0.2,0.5,0.3c0.2,0.1,0.4,0.2,0.6,0.2l1.2,0.4c0.3,0.1,0.6,0.2,0.9,0.4
	c0.3,0.2,0.6,0.3,0.9,0.6c0.3,0.2,0.5,0.5,0.7,0.9c0.2,0.3,0.3,0.7,0.3,1.2s-0.1,0.9-0.3,1.2c-0.2,0.4-0.4,0.7-0.7,0.9
	c-0.3,0.3-0.7,0.5-1.1,0.6c-0.4,0.1-0.9,0.2-1.4,0.2c-0.5,0-0.9-0.1-1.4-0.2c-0.4-0.1-0.8-0.3-1.1-0.6c-0.3-0.2-0.6-0.5-0.9-0.9
	c-0.2-0.3-0.4-0.7-0.6-1.1l1.1-0.6c0.3,0.7,0.7,1.3,1.2,1.7c0.5,0.4,1.1,0.6,1.7,0.6c0.6,0,1.1-0.2,1.5-0.5c0.4-0.3,0.6-0.8,0.6-1.3
	c0-0.5-0.2-0.9-0.5-1.2c-0.3-0.3-0.8-0.5-1.3-0.7L139.5,87.6z"/>
<path class="st1" d="M146,92.5V82.4h1.3v10.2H146z"/>
<path class="st1" d="M154.1,92.8c-0.7,0-1.4-0.1-1.9-0.4c-0.6-0.3-1-0.7-1.4-1.1c-0.4-0.5-0.7-1-0.9-1.7c-0.2-0.6-0.3-1.3-0.3-2.1
	c0-0.7,0.1-1.4,0.3-2.1c0.2-0.6,0.5-1.2,0.9-1.7c0.4-0.5,0.9-0.9,1.4-1.1c0.6-0.3,1.2-0.4,1.9-0.4c0.7,0,1.4,0.1,1.9,0.4
	c0.6,0.3,1,0.7,1.4,1.1c0.4,0.5,0.7,1,0.9,1.7c0.2,0.6,0.3,1.3,0.3,2.1c0,0.7-0.1,1.4-0.3,2.1c-0.2,0.6-0.5,1.2-0.9,1.7
	c-0.4,0.5-0.9,0.9-1.4,1.1C155.5,92.6,154.8,92.8,154.1,92.8z M154.1,91.7c0.5,0,1-0.1,1.4-0.3c0.4-0.2,0.7-0.5,1-0.9
	c0.3-0.4,0.5-0.8,0.6-1.3c0.1-0.5,0.2-1,0.2-1.6c0-0.6-0.1-1.1-0.2-1.6c-0.1-0.5-0.3-1-0.6-1.3c-0.3-0.4-0.6-0.7-1-0.9
	c-0.4-0.2-0.9-0.3-1.4-0.3c-0.6,0-1,0.1-1.4,0.3c-0.4,0.2-0.7,0.5-1,0.9c-0.3,0.4-0.5,0.8-0.6,1.3c-0.1,0.5-0.2,1-0.2,1.6
	c0,0.6,0.1,1.1,0.2,1.6c0.1,0.5,0.3,1,0.6,1.3c0.3,0.4,0.6,0.7,1,0.9C153.1,91.5,153.5,91.7,154.1,91.7z"/>
<path class="st1" d="M167.1,92.5l-4.1-6.9c-0.1-0.1-0.2-0.3-0.3-0.5c-0.1-0.2-0.2-0.4-0.3-0.6c-0.1-0.2-0.2-0.4-0.4-0.7h0
	c0,0.2,0,0.4,0,0.6c0,0.2,0,0.4,0,0.6c0,0.2,0,0.4,0,0.6v6.9h-1.2V82.4h1.7l4,6.7c0.1,0.1,0.2,0.3,0.3,0.5c0.1,0.2,0.2,0.4,0.3,0.6
	c0.1,0.2,0.2,0.4,0.4,0.7h0c0-0.2,0-0.4,0-0.6c0-0.2,0-0.4,0-0.6c0-0.2,0-0.4,0-0.6v-6.7h1.2v10.2H167.1z"/>
<path class="st1" d="M177.8,92.5l-1-2.8h-4.3l-1,2.8h-1.3l3.7-10.2h1.6l3.7,10.2H177.8z M174.9,84.3c0-0.1-0.1-0.2-0.1-0.3
	c0-0.1-0.1-0.2-0.1-0.3c0-0.1-0.1-0.2-0.1-0.3h0c0,0.1-0.1,0.2-0.1,0.3c0,0.1,0,0.2-0.1,0.3c0,0.1-0.1,0.2-0.1,0.3l-1.5,4.4h3.6
	L174.9,84.3z"/>
<path class="st1" d="M180.7,92.5V82.4h1.3v9.1h4.4l0.2,1.1H180.7z"/>
</svg>
