<?xml version="1.0" encoding="utf-8"?>
<!-- Generator: Adobe Illustrator 21.0.0, SVG Export Plug-In . SVG Version: 6.00 Build 0)  -->
<svg version="1.1" id="Layer_1" xmlns="http://www.w3.org/2000/svg" xmlns:xlink="http://www.w3.org/1999/xlink" x="0px" y="0px"
	 viewBox="0 0 643.1 490.9" style="enable-background:new 0 0 643.1 490.9;" xml:space="preserve">
<style type="text/css">
	.st0{fill:#FFFFFF;}
</style>
<g>
	<path class="st0" d="M464.7,233.5c0-38.9,1.1-90.1,5.6-129c7.8-73.4,13.3-91.2,31.1-91.2c10.6,0,18.3,13.3,18.3,38.9
		C519.7,124,489.1,186.8,464.7,233.5 M409.6,279.5c-3.9,2.2-6.6,6.6-6.6,11.2c0,5.1,2.3,9.1,5.1,11.8c-4.5,29.8-18.8,57.1-44,57.1
		c-19.5,0-36.7-22.2-36.7-73.9c0-51.7,17.2-74.5,36.7-74.5C393.6,211.2,409.1,247.2,409.6,279.5 M260.7,233.5
		c0-38.9,1.1-90.1,5.6-129c7.8-73.4,13.3-91.2,31.1-91.2c10.6,0,18.3,13.3,18.3,38.9C315.7,124,285.1,186.8,260.7,233.5
		 M146.2,233.5c0-38.9,1.1-83.4,5.6-122.3c7.8-73.4,13.3-91.2,31.1-91.2c10.6,0,18.3,13.3,18.3,38.9
		C201.2,130.6,170.7,186.8,146.2,233.5 M115.1,288.5c-20.6,37.2-36.7,65.6-57.8,65.6c-12.8,0-21.1-20-21.1-53.4
		c0-64.5,20.6-91.2,46.1-91.2c21.7,0,32.8,13.3,32.8,31.7V288.5z M643.1,284.6c0-2.2-1.1-3.3-3.3-3.3c-2.8,0-3.9,2.2-6.1,7.2
		c-13.9,30.6-25,60.6-43.4,60.6c-15,0-23.9-12.2-23.9-62.3V181.2h37.2c0,0,5.6,0,5.6-5.6s-5.6-5.6-5.6-5.6h-37.2
		c0-13.9,0-53.9,2.2-70c1.1-6.7,3.9-10,3.9-12.2c0-2.2-1.1-3.3-3.3-3.3c-2.8,0-6.1,1.1-10.6,3.3c-8.9,4.4-23.3,14.5-23.3,29.5v52.8
		h-16.1c0,0-5.6,0-5.6,5.6s5.6,5.6,5.6,5.6h16.1v119.6c-11.6,15.4-28,23.8-45.6,23.8c-10.6,0-17.8-1.7-25.6-5v-65.6
		c32.8-60.6,65-128.4,65-201.8c0-28.9-9.5-52.3-30-52.3c-30,0-52.3,21.7-60,98.4C433,155.1,433,224,433,291.9
		c-2.6-4.7-6.5-10.4-12.2-12.8c-0.2-37.1-19.6-79-59.5-79c-36.1,0-70.6,27.2-70.6,87.3c0,21.5,4.2,38.6,11.3,51.8
		c-5,6.3-10.6,9.9-18,9.9c-15,0-23.9-12.2-23.9-62.3v-32.8c32.8-60.6,65-128.4,65-201.8c0-28.9-9.5-52.3-30-52.3
		c-30,0-51.7,21.7-60,98.4c-6.1,58.4-6.1,114.5-6.1,186.8v22.2c0,35.6,11.1,65,40,65c18.9,0,30.7-10.2,39.4-23.5
		c12.6,16.2,30.7,24,50.1,24c37.5,0,54-30,59.8-63c4.5,2.7,9.8,5.5,14.7,8v71c-56.8,9.3-116.1,33-155,33
		c-56.1,0-109-25.6-125.6-88.4c-5.6-21.7-6.1-56.1-6.1-79.5c32.8-60.6,64.5-121.7,64.5-195.1c0-28.9-9.4-52.3-30-52.3
		c-30,0-51.7,21.7-60,98.4c-4.5,37.8-5.6,76.7-5.6,107.8c-6.7-8.3-18.9-13.3-33.9-13.3c-35.6,0-81.2,25-81.2,106.7
		c0,37.8,20.6,66.2,41.7,66.2c36.1,0,58.4-38.9,73.4-65c16.7,91.2,74.5,124.5,154.5,124.5c51.3,0,107.7-20,163.4-27.7
		c-0.1,23.8-0.1,32.4,0.1,39.9c0.2,7.9,5,12.2,10,12.2c9.2,0,21-13.4,21-28.4v-26.4c2.6-0.1,5.2-0.2,7.8-0.2
		c65,0,87.8,27.2,87.8,53.9c0,11.1-13.3,14.5-13.3,25c0,5.6,4.4,10.6,10.6,10.6c12.2,0,16.1-12.8,16.1-26.1
		c0-40-29.5-79.5-99.5-79.5c-3.1,0-6.3,0.2-9.5,0.3v-55.9c8.3,2.8,16.1,3.3,25,3.3c17.3,0,33.7-5.6,46.3-18.2
		c1.5,32.2,13,57.7,39.8,57.7c35.6,0,52.8-51.1,63.9-76.2C641.4,291.3,643.1,286.9,643.1,284.6 M197.5,373.6c8,0,16.9-9.4,16.9-22
		c0-8.4-3.7-15.9-11.7-15.9c-11.2,0-17.3,14-17.3,23C185.3,366.5,190,373.6,197.5,373.6"/>
</g>
</svg>
